<svg width="227" height="60" viewBox="0 0 227 60" fill="none" xmlns="http://www.w3.org/2000/svg">
<g clip-path="url(#clip0_3971_3324)">
<path d="M64.0907 12.4962H88.2163V17.8067H70.2672V25.334H79.5585C83.1153 25.334 85.9198 26.3716 87.9787 28.4533C90.0376 30.5285 91.067 33.0806 91.067 36.1096C91.067 39.1643 90.0376 41.7293 87.9787 43.7916C85.9198 45.8475 83.1153 46.8851 79.5585 46.8851H64.0907V12.4962ZM78.7138 30.6445H70.2672V41.5747H78.7138C80.4757 41.5747 81.9143 41.072 83.0427 40.0795C84.1711 39.0806 84.732 37.7594 84.732 36.1096C84.732 34.4597 84.1711 33.1321 83.0427 32.1396C81.9143 31.1407 80.4757 30.6445 78.7138 30.6445ZM100.411 47.5038C98.9329 47.5038 97.5075 47.2589 96.1349 46.7755C94.7624 46.2986 93.7791 45.7508 93.1786 45.1321L95.3959 40.1826C96.907 41.4844 98.438 42.1418 99.9887 42.1418C101.361 42.1418 102.443 41.8195 103.235 41.188C104.027 40.5499 104.859 39.4092 105.743 37.7594L92.4924 12.4962H99.5136L109.227 32.5521L118.941 12.4962H125.955L111.286 40.4404C110.052 42.7734 108.627 44.5392 107.01 45.725C105.387 46.9044 103.189 47.5038 100.411 47.5038ZM144.38 46.8851H138.203V17.8067H127.539V12.4962H155.043V17.8067H144.38V46.8851ZM166.235 46.8851H160.27V12.4962H166.446V36.3673L184.441 12.4962H190.776V46.8851H184.6V22.3437L166.235 46.8851ZM226.938 46.8851H219.336L207.511 32.3974L204.449 35.9033V46.8851H198.273V12.4962H204.449V28.8915L218.228 12.4962H225.883L211.576 28.7368L226.938 46.8851ZM24.6226 0C14.6385 0 5.67059 4.82062 0.0615234 12.0258H14.1964L28.2454 48.0258V20.3974H20.8547V12.0258H38.1372V48.0258H17.872L15.6085 42.0064H2.27875L0.0747212 48.0064C5.67719 55.3276 14.5461 60 24.6226 60C41.5884 60 55.3405 46.5628 55.3405 30C55.3405 13.4307 41.5884 0 24.6226 0ZM4.60817 34.8077H12.8634L8.85786 21.6219L4.60817 34.8077Z" fill="#D61C26"/>
</g>
<defs>
<clipPath id="clip0_3971_3324">
<rect width="227" height="60" fill="white"/>
</clipPath>
</defs>
</svg>
