<svg width="336" height="60" viewBox="0 0 336 60" fill="none" xmlns="http://www.w3.org/2000/svg">
<path fill-rule="evenodd" clip-rule="evenodd" d="M20.191 0.134555L19.6124 0.210328L18.0695 0.515566L16.5266 0.82061L14.6944 1.41117L12.8623 2.00192L11.3194 2.72684L9.77648 3.45176L8.42646 4.28975L7.07644 5.12774L5.52603 6.35045L3.97563 7.57316L2.00633 9.66179L0.0370292 11.7504V11.9291V12.108L6.83536 12.1119L13.6337 12.116L20.0945 29.3277L26.5553 46.5396L26.7874 47.1962L27.0196 47.8528L22.0877 47.8006L17.1561 47.7485L16.1283 44.9369L15.1006 42.1253L14.9334 41.956L14.7662 41.7866L8.43977 41.8382L2.11317 41.8898L1.05649 44.8744L0 47.859L0.812328 48.9253L1.62466 49.9914L3.39261 51.7015L5.16075 53.4119L6.89013 54.6078L8.61932 55.8038L10.5479 56.7791L12.4765 57.7542L13.9955 58.2824L15.5147 58.8105L17.1777 59.1757L18.8409 59.5411L20.9624 59.7705L23.0839 60L25.1089 59.8647L27.1339 59.7295L28.6793 59.4583L30.2249 59.187L31.9579 58.6806L33.6912 58.1742L35.4146 57.4065L37.138 56.6389L38.8861 55.5763L40.6342 54.5135L42.2093 53.2295L43.7845 51.9456L45.2663 50.3353L46.7482 48.7249L48.1665 46.5738L49.5846 44.4227L50.3509 42.7656L51.1169 41.1086L51.6287 39.5625L52.1406 38.0164L52.507 36.3156L52.8737 34.6148L53.0868 32.2508L53.2997 29.8868L53.0835 27.4648L52.8673 25.0427L52.4058 23.1159L51.9445 21.189L51.4239 19.7243L50.9034 18.2596L50.0432 16.5212L49.1831 14.7827L48.6741 13.9824L48.1652 13.1821L47.0647 11.6979L45.9644 10.2135L44.4939 8.7244L43.0233 7.2355L41.3852 5.99033L39.7468 4.74536L38.31 3.91284L36.873 3.08031L35.0892 2.29857L33.3055 1.51662L31.1805 0.970202L29.0554 0.423975L27.5503 0.21189L26.0452 0L23.4075 0.0292935L20.7695 0.0585871L20.191 0.134555ZM185.376 5.95635V8.39748H192.512H199.648V5.95635V3.51522H192.512H185.376V5.95635ZM65.9953 22.1217V32.3307L65.7965 33.9856L65.5976 35.6405L65.2098 37.2028L64.8219 38.7651L64.0104 40.4251L63.1988 42.085L61.4149 42.1413L59.6309 42.1973V48.537V54.8766H62.6203H65.6096V51.459V48.0414H76.3133H87.0171V51.459V54.8766H90.0091H93.0012L92.9503 48.5784L92.8994 42.2803L91.019 42.2245L89.1386 42.1686V27.0407V11.9127H77.5669H65.9953V22.1217ZM97.9062 12.1568L97.8142 12.4009L97.864 30.1723L97.9137 47.9438H108.714H119.514V45.112V42.2803L111.655 42.2294L103.796 42.1784V37.3959V32.6135H110.932H118.068V29.7818V26.9501H110.932H103.796V22.3607V17.7714H111.51H119.225V14.8421V11.9127H108.612H97.998L97.9062 12.1568ZM121.968 14.7932L122.021 17.6738L126.987 17.7259L131.954 17.7781V32.9097V48.0414H134.943H137.932V32.9097V17.7781L142.898 17.7259L147.865 17.6738L147.918 14.7932L147.971 11.9127H134.943H121.915L121.968 14.7932ZM152.204 29.9771V48.0414H163.009H173.815L173.761 45.1609L173.708 42.2803L165.849 42.2294L157.99 42.1784V37.3959V32.6135H165.126H172.261V29.7818V26.9501H165.126H157.99V22.3607V17.7714H165.704H173.419V14.8421V11.9127H162.811H152.204V29.9771ZM179.012 29.9771V48.0414H181.298H183.584L191.857 35.9656L200.13 23.8901L200.18 35.9656L200.229 48.0414H203.217H206.205V29.971V11.9006L203.851 11.9555L201.498 12.0104L193.352 23.9016L185.206 35.793L185.002 35.9998L184.797 36.2068V24.0598V11.9127H181.904H179.012V29.9771ZM216.952 24.0695L216.862 36.2263L216.532 37.682L216.201 39.1377L215.81 39.9279L215.419 40.718L215.006 41.1764L214.594 41.6349L213.846 42.0233L213.098 42.412L211.676 42.5207L210.255 42.6297V45.3355V48.0414H212.047H213.838L214.943 47.75L216.047 47.4589L216.992 46.9741L217.936 46.4894L219.079 45.4185L220.221 44.3473L220.807 43.2162L221.393 42.085L221.801 40.8157L222.209 39.5463L222.499 37.5934L222.789 35.6405L222.79 26.7059L222.791 17.7714H228.866H234.941V32.9064V48.0414H237.834H240.727V29.9771V11.9127H228.884H217.042L216.952 24.0695ZM247.863 29.9771V48.0414H250.133H252.403L260.692 35.9324L268.981 23.8233L269.031 35.9324L269.08 48.0414H272.068H275.056V29.9771V11.9127L272.694 11.9213L270.331 11.9299L262.038 24.0602L253.745 36.1902L253.695 24.0516L253.646 11.9127H250.754H247.863V29.9771ZM281.999 29.9771V48.0414H284.988H287.978V40.2298V32.4182H295.499H303.021V40.2298V48.0414H306.01H309V29.9771V11.9127H306.01H303.021V19.3337V26.7548H295.499H287.978V19.3337V11.9127H284.988H281.999V29.9771ZM315.943 29.9771V48.0414H318.932H321.921V32.9064V17.7714H328.961H336V14.8421V11.9127H325.971H315.943V29.9771ZM36.4877 29.9771V47.8461H31.859H27.2304V34.0781V20.3102H23.6624H20.0945V16.2091V12.108H28.2911H36.4877V29.9771ZM83.1599 29.8794V42.1827H76.3421H69.5243L70.0492 41.0598L70.5742 39.9369L70.8795 38.8628L71.185 37.7887L71.504 36.1287L71.8232 34.4687L71.9173 26.0224L72.0114 17.5761H77.5856H83.1599V29.8794ZM6.43633 27.9968L4.47282 34.3238V34.5427V34.7617H8.4471H12.4214L12.334 34.5176L12.2466 34.2734L10.4594 28.1218L8.67216 21.9702L8.53601 21.82L8.40004 21.67L6.43633 27.9968Z" fill="#D61C26"/>
</svg>
