<svg width="230" height="102" viewBox="0 0 230 102" fill="none" xmlns="http://www.w3.org/2000/svg">
<g clip-path="url(#clip0_3971_3328)">
<path fill-rule="evenodd" clip-rule="evenodd" d="M111.593 53.5009C96.9359 53.5009 85.0496 41.5246 85.0496 26.7502C85.0496 11.9748 96.935 0 111.593 0C126.251 0 138.135 11.9748 138.135 26.7502C138.135 41.5246 126.25 53.5009 111.593 53.5009ZM111.593 52.5372C125.722 52.5372 137.179 40.9932 137.179 26.7502C137.179 12.5065 125.723 0.964039 111.593 0.964039C97.4619 0.964039 86.006 12.5062 86.006 26.7502C86.006 40.9935 97.4628 52.5372 111.593 52.5372ZM123.976 26.7863C124.435 27.2524 124.777 27.7498 125.203 28.2686C126.021 29.2662 126.445 30.7275 126.445 32.0148C126.445 34.7346 124.717 37.3024 122.294 38.4504C119.894 39.5875 117.029 39.8625 114.41 39.8625C111.714 39.8625 109.014 39.823 106.319 39.7863C102.684 39.7368 99.0512 39.7995 95.4174 39.8665C95.4174 37.3534 95.4174 34.8409 95.4174 32.3279L98.1142 32.4034V18.8035L95.4174 18.8797V11.5383L106.016 11.6177L113.632 11.5409C114.98 11.5273 116.347 11.5692 117.681 11.7734C120.223 12.1627 122.275 13.2445 123.833 15.3396C124.726 16.5397 125.364 17.9448 125.364 19.4681C125.364 22.1532 123.93 24.2527 121.532 25.2055C121.879 25.3487 122.218 25.5088 122.544 25.6961C125.067 24.9746 126.452 23.0001 126.452 20.3678C126.452 17.8255 125.63 16.8601 124.691 15.5882C126.537 16.8604 127.742 18.7633 127.742 21.0645C127.742 22.2896 127.411 23.507 126.736 24.5307C125.966 25.699 125.214 26.3185 123.976 26.7863ZM127.58 29.8658C128.398 30.8625 128.823 32.3259 128.823 33.6132C128.823 36.3317 127.094 38.9027 124.671 40.0501C122.273 41.1853 119.406 41.459 116.788 41.459C114.092 41.459 111.392 41.4214 108.696 41.385C105.697 41.3448 102.68 41.4041 99.6816 41.459L99.4581 41.4633V40.309C102.254 40.2556 105.054 40.2073 107.85 40.2451C110.544 40.2813 113.242 40.3203 115.936 40.3203C118.485 40.3203 121.298 40.0572 123.633 38.9509C125.901 37.8755 127.533 35.4622 127.533 32.9149C127.533 30.3701 127.004 29.8029 125.848 28.2708C126.546 28.7494 127.039 29.2076 127.58 29.8658ZM96.5255 12.6603V17.7335L99.2226 17.6579V33.5499L96.5255 33.4737V38.5765C98.2501 38.546 99.9751 38.5192 101.7 38.5054C102.968 38.4955 104.237 38.4944 105.504 38.5112C107.183 38.5331 108.862 38.5437 110.541 38.5608C111.558 38.571 112.577 38.5851 113.595 38.5851C115.027 38.5851 116.48 38.5022 117.892 38.2513C120.286 37.8251 122.469 37.01 123.85 34.8707C124.493 33.8745 124.874 32.7042 124.874 31.5114C124.874 27.7372 121.837 26.3092 118.7 25.4589L118.718 24.4605C119.635 24.2469 120.627 24.0072 121.436 23.5073C122.926 22.5867 123.793 20.6741 123.793 18.9453C123.793 17.8159 123.433 16.7178 122.802 15.7883C121.577 13.9859 119.588 13.1936 117.516 12.8769C116.24 12.6816 114.925 12.6452 113.637 12.6581L106.016 12.7321L96.5255 12.6603ZM110.351 23.6431H108.376V17.3518L108.604 17.3611C109.435 17.3938 110.264 17.3729 111.096 17.3729C111.993 17.3729 112.973 17.5319 113.685 18.1234C114.381 18.7012 114.636 19.5256 114.636 20.4144C114.636 21.4168 114.207 22.5255 113.345 23.084C112.416 23.6865 111.41 23.6431 110.351 23.6431ZM109.642 33.7985H108.376V27.2286H109.94C110.682 27.2286 111.492 27.2344 112.226 27.3586C113.88 27.6374 114.933 28.7814 114.933 30.4937C114.933 32.6657 113.356 33.6352 111.386 33.7583C110.807 33.7941 110.222 33.7985 109.642 33.7985ZM109.97 22.526H110.351C111.138 22.526 112.056 22.5934 112.747 22.1454C113.292 21.7918 113.528 21.0379 113.528 20.4144C113.528 19.8807 113.408 19.337 112.983 18.9836C112.562 18.6345 112.279 18.6755 111.763 18.6755H109.97V22.526ZM109.97 32.6807C110.419 32.6791 110.872 32.6727 111.319 32.645C112.696 32.5605 113.825 32.0573 113.825 30.4937C113.825 29.6164 113.407 28.8832 112.568 28.5887C111.974 28.5229 111.355 28.5165 110.758 28.5165H109.97V32.6807ZM211.914 66.4184H219.796C219.701 69.5718 219.648 71.0737 219.648 72.7705V76.5027L211.861 76.5528C211.185 73.5462 209.696 72.1379 207.347 72.1379C205.556 72.1379 204.069 73.3988 204.069 74.8577C204.07 75.2938 204.212 75.7741 204.504 76.1144C204.837 76.5528 205.181 76.8932 205.659 77.1335C205.947 77.2795 206.38 77.4719 207.005 77.8602L209.12 78.8279C209.839 79.2136 210.658 79.559 211.573 80.0427C214.747 81.4952 215.036 81.6419 216.332 82.4167C219.843 84.4528 221.626 87.3102 221.626 91.1913C221.627 97.6863 216.526 102 208.78 102C207.293 102 205.751 101.857 204.309 101.47C202.34 101.03 201.477 100.644 199.602 99.1889V101.274H191.659C191.707 98.1254 191.803 96.619 191.803 94.9768C191.803 93.8107 191.803 92.1599 191.707 89.9309H199.739C200.032 91.4824 200.322 92.0637 201.091 92.8878C202.1 93.9523 203.684 94.6316 205.276 94.6316C206.763 94.6313 207.967 93.6125 207.967 92.3544C207.967 90.9992 206.664 89.9309 202.722 88.1835C201.477 87.6017 200.654 87.2166 200.372 87.0718L197.867 85.8121C196.619 85.1798 195.509 84.5975 194.741 84.0191C192.188 82.4167 190.704 79.4587 190.704 76.1679C190.705 69.9575 195.464 65.6939 202.533 65.6939C203.828 65.6936 205.128 65.7904 206.471 66.0805C208.637 66.4184 209.552 66.7591 211.913 67.8283L211.914 66.4184ZM155.731 66.4184C159.775 66.4699 162.85 66.5204 164.872 66.5204C166.836 66.5204 169.868 66.4702 173.819 66.4187V74.4175L171.46 74.3214V88.9572C171.46 90.9992 171.554 91.676 171.985 92.4037C172.517 93.324 173.866 93.8113 175.451 93.8113C176.939 93.8107 178.239 93.2752 178.815 92.3544C179.298 91.6757 179.392 90.9995 179.392 88.9575L179.392 74.3214L176.991 74.4175V66.4184C179.921 66.4699 182.086 66.5204 183.53 66.5204C184.924 66.5204 186.897 66.4702 189.543 66.4187V74.4175L187.137 74.3214V88.1366C187.137 92.938 185.985 95.7507 183.146 98.2174C180.358 100.596 176.751 101.857 172.614 101.857C168.527 101.857 164.92 100.597 162.127 98.2174C159.337 95.7504 158.184 92.938 158.184 88.1372V74.3214L155.731 74.4175V66.4184ZM117.785 66.4184L130.098 66.5204L139.911 66.4184C144.242 66.4184 146.31 66.7591 148.617 67.7289C151.689 69.0381 153.717 72.0426 153.717 75.2421C153.717 76.7922 153.281 78.298 152.458 79.559C151.167 81.4952 149.961 82.2686 146.841 82.9994C150.588 84.0191 152.034 84.8886 153.567 86.7811C154.529 87.9419 155.108 89.7382 155.108 91.4329C155.109 94.7767 152.99 98.0267 149.912 99.4813C147.369 100.689 144.095 101.274 139.859 101.274C138.657 101.274 135.199 101.225 129.428 101.178C126.828 101.126 122.981 101.178 117.785 101.274L117.785 93.2262L120.628 93.324V74.3214L117.785 74.4175V66.4184ZM133.852 80.572H135.199H135.679C137.702 80.572 137.796 80.572 138.611 80.2336C138.997 80.0917 139.334 79.8984 139.618 79.559C140.199 78.9244 140.492 78.0543 140.492 77.1335C140.492 74.9988 139.192 73.9351 136.639 73.9351L136.449 73.9345L135.006 73.984L133.852 73.9345V80.572ZM133.852 93.6653H134.764C136.589 93.6653 137.603 93.6125 138.421 93.4237C139.859 93.0313 140.876 91.7273 140.876 90.1272C140.876 88.9572 140.34 87.8993 139.475 87.3102C138.611 86.8268 137.796 86.6324 135.151 86.6324L133.852 86.6321V93.6653ZM78.7788 93.2262L81.4678 93.324L86.8558 74.3214L83.9701 74.4175V66.4184C89.6448 66.4699 93.8272 66.5204 96.7164 66.5204C99.8421 66.5204 104.502 66.4702 110.753 66.4187L110.754 74.4175L107.824 74.3214L113.302 93.324L115.999 93.2262V101.274C112.054 101.225 109.123 101.178 107.146 101.178C105.081 101.178 101.957 101.225 97.8209 101.274V93.2262L100.61 93.324L99.8421 89.8818H90.7985L89.9308 93.324L92.7711 93.2262V101.274C89.596 101.225 87.2404 101.178 85.7006 101.178C84.1147 101.178 81.8513 101.225 78.7783 101.274L78.7788 93.2262ZM92.2416 84.501H98.3003L96.0391 76.1144L95.6029 74.2227L95.269 72.4347C94.8372 74.7087 94.7431 75.2421 94.5969 75.8234L92.2416 84.501ZM37.7988 93.2262L40.688 93.324V74.3214L37.7988 74.4175V66.4184L47.7564 66.5204L59.8236 66.4184C65.5512 66.4184 67.8576 66.955 70.5567 68.8404C73.0063 70.5388 74.4442 73.4954 74.4442 76.6507C74.4445 77.8599 74.2539 79.1232 73.773 80.1853C72.9077 82.5129 71.9921 83.4358 69.2999 84.9866L74.2979 93.324L76.6107 93.2262V101.274C73.7733 101.225 71.6621 101.178 70.2143 101.178C68.7714 101.178 66.6038 101.225 63.6728 101.274L57.424 87.1181H53.8659V93.324L56.6047 93.2262V101.274C52.5666 101.225 49.5378 101.178 47.516 101.178C45.351 101.178 42.1267 101.225 37.7985 101.274L37.7988 93.2262ZM53.9099 80.7204H56.3664C59.2006 80.7204 60.5943 79.559 60.5943 77.2802C60.5943 75.1446 59.2992 74.0805 56.5566 74.0805L56.2169 74.0802H53.9099V80.7204ZM0.00128 66.4184L12.315 66.5204L22.1216 66.4184C26.4515 66.4184 28.5185 66.7591 30.8246 67.7289C33.905 69.0381 35.9248 72.0426 35.9248 75.2421C35.9248 76.7922 35.4915 78.298 34.6728 79.559C33.3727 81.4952 32.174 82.2686 29.0506 82.9994C32.8017 84.0191 34.2427 84.8886 35.7796 86.7811C36.7428 87.9419 37.3253 89.7382 37.3253 91.4329C37.3253 94.7767 35.2068 98.0267 32.1242 99.4813C29.5764 100.689 26.3055 101.274 22.0767 101.274C20.871 101.274 17.4096 101.225 11.6368 101.178C9.03776 101.126 5.19504 101.178 0.000976562 101.274L0.00128 93.2262L2.83826 93.324V74.3214L0.00128 74.4175V66.4184ZM16.065 80.572H17.4096H17.8902C19.9097 80.572 20.0052 80.572 20.8208 80.2336C21.2086 80.0917 21.5507 79.8984 21.8329 79.559C22.4128 78.9244 22.7003 78.0543 22.7003 77.1335C22.7003 74.9988 21.4014 73.9351 18.8527 73.9351L18.6618 73.9345L17.2138 73.984L16.065 73.9345V80.572ZM16.065 93.6653H16.9822C18.8001 93.6653 19.8146 93.6125 20.6296 93.4237C22.077 93.0313 23.0838 91.7273 23.0838 90.1272C23.0843 88.9572 22.5548 87.8993 21.6901 87.3102C20.8208 86.8268 20.0052 86.6324 17.3616 86.6324L16.065 86.6321V93.6653ZM225.512 66.786C227.991 66.799 230.001 68.8236 230.001 71.3197C230.001 73.8208 227.99 75.8453 225.512 75.8453C223.036 75.8449 221.029 73.8208 221.029 71.3197C221.03 68.8232 223.036 66.7868 225.512 66.786ZM222.937 73.9773C224.361 75.4345 226.683 75.4351 228.088 73.9773C229.532 72.4968 229.532 70.1347 228.088 68.6534C226.683 67.2123 224.36 67.2126 222.937 68.6534C222.255 69.3669 221.859 70.3254 221.859 71.3197C221.859 72.3135 222.255 73.2631 222.937 73.9773ZM223.892 68.6778H225.503C226.146 68.6894 226.429 68.7667 226.732 68.9938C226.985 69.1874 227.171 69.4805 227.249 69.8307C227.444 70.7405 227.044 71.3806 226.263 71.6109C226.225 71.6106 226.185 71.6228 226.165 71.6357L227.61 73.8549H226.381L224.937 71.5144V73.8549H223.892V68.6778ZM225.337 71.0882C225.834 71.0882 226.117 70.8614 226.205 70.4848C226.322 69.9147 225.99 69.5415 225.366 69.5415H224.937V71.0882H225.337Z" fill="#212322"/>
</g>
<defs>
<clipPath id="clip0_3971_3328">
<rect width="230" height="102" fill="white"/>
</clipPath>
</defs>
</svg>
