<svg width="162" height="60" viewBox="0 0 162 60" fill="none" xmlns="http://www.w3.org/2000/svg">
<g clip-path="url(#clip0_3971_3316)">
<path d="M64.9324 33.8727L69.6177 19.6636L74.4883 33.8727H64.9324ZM90.6618 18.2182H94.2354C97.5707 18.2182 98.8942 19.3636 98.8942 21.9545C98.8942 24.5455 97.3324 25.8545 94.2883 25.8545H90.6618V18.2182ZM129.124 18.8727C126.794 22.1455 125.709 26.2636 125.709 30.3C125.709 40.9091 133.227 48.3545 144 48.3545C154.535 48.3545 161.921 40.8 161.921 30C161.921 19.4182 154.112 11.5364 143.656 11.5364C142.174 11.5364 140.744 11.7 139.394 12H83.303V36.4364L73.5883 12H65.5677L51.9354 47.8909H60.0089L62.5765 40.6364H77.003L79.703 47.8909H96.1677C99.7412 47.8909 101.806 47.3454 103.579 46.4727C106.968 44.8091 109.032 41.1273 109.032 36.7636C109.032 33.8727 108.132 31.6909 106.385 30.1364C105.432 29.2909 104.612 28.8818 102.6 28.2273C104.082 27.1091 104.559 26.5091 105.141 25.3909C106.094 23.5636 106.279 21 105.882 18.9818H113.294V47.8909H120.812V18.8727H129.124ZM144.106 41.2091C137.938 41.2091 133.227 36.4909 133.227 30.0818C133.227 23.7818 137.912 18.8182 143.921 18.8182C149.903 18.8182 154.324 23.6454 154.324 30.0818C154.297 36.3818 149.877 41.2091 144.106 41.2091ZM95.7177 41.4273H90.556V32.1273H95.5059C98.7089 32.1273 101.647 32.5364 101.647 36.6273C101.674 39.8454 99.7412 41.4273 95.7177 41.4273ZM4.20889 34.7182H12.0177L8.23242 21.5727L4.20889 34.7182ZM23.1354 0C13.7118 0 5.21477 4.8 -0.0793457 12H13.2618L26.5501 47.8909V20.3455H19.5618V12H35.8942V47.8909H16.7559L14.6118 41.8909H2.01183L-0.0793457 47.8636C5.21477 55.1727 13.5795 59.8091 23.1089 59.8091C39.1501 59.8091 52.1207 46.4182 52.1207 29.8909C52.1207 13.3636 39.1501 0 23.1354 0Z" fill="#D61C26"/>
</g>
<defs>
<clipPath id="clip0_3971_3316">
<rect width="162" height="60" fill="white"/>
</clipPath>
</defs>
</svg>
