<svg width="40" height="40" viewBox="0 0 40 40" fill="none" xmlns="http://www.w3.org/2000/svg">
<path d="M20.0128 5C11.7373 5 5.02565 11.7174 5.02565 20C5.02565 22.6739 5.74243 25.1517 6.9805 27.3038L5.02565 34.1517C4.96049 34.3473 5.02514 34.6082 5.15547 34.8038C5.35095 34.9995 5.6116 35 5.80708 35L12.9749 33.2396C15.06 34.3483 17.4715 35 20.0128 35C28.2884 35 35 28.2826 35 20C35 11.7174 28.2884 5 20.0128 5ZM20.0128 6.30435C27.5716 6.30435 33.6968 12.4348 33.6968 20C33.6968 27.5652 27.5716 33.6957 20.0128 33.6957C17.6018 33.6957 15.3217 33.044 13.3669 31.9353C13.2365 31.8701 13.0403 31.8038 12.91 31.8691L6.65469 33.4345L8.28374 27.435C8.3489 27.2394 8.28399 27.1084 8.21883 26.9128C7.04592 24.8911 6.32889 22.5435 6.32889 20C6.32889 12.4348 12.4541 6.30435 20.0128 6.30435ZM15.5253 12.1663C15.4032 12.1581 15.3217 12.1739 15.3217 12.1739H14.539C14.148 12.1739 13.5623 12.3043 13.041 12.8261C12.7152 13.1522 11.5418 14.3261 11.5418 16.413C11.5418 18.6304 13.0403 20.5215 13.2358 20.7171C13.2358 20.7171 13.4967 21.044 13.8225 21.5005C14.1483 21.957 14.6042 22.4788 15.1906 23.1309C16.3635 24.3701 17.9926 25.8038 20.0777 26.6517C20.99 27.043 21.7719 27.3043 22.3584 27.5C23.401 27.8261 24.3792 27.7614 25.0959 27.6962C25.6172 27.6309 26.2034 27.3691 26.7899 26.9778C27.3763 26.5864 27.9623 26.1307 28.2229 25.4785C28.4184 24.9568 28.4836 24.5005 28.5487 24.1092V23.587C28.5487 23.3913 28.4843 23.3918 28.354 23.1309C28.0282 22.6092 27.7014 22.6092 27.3104 22.4788C27.1149 22.3483 26.5285 22.0875 26.0072 21.8266C25.4207 21.5657 24.9649 21.3049 24.639 21.1744C24.4436 21.1092 24.1834 20.978 23.8576 21.0432C23.5318 21.1084 23.2055 21.3043 23.01 21.6304C22.8145 21.8913 22.0985 22.8038 21.8379 23.0647L21.7717 22.9997C21.511 22.8693 21.1206 22.7396 20.6644 22.4788C20.1432 22.2179 19.5562 21.8266 18.8394 21.1744C17.7968 20.2614 17.08 19.1519 16.8846 18.7606C17.08 18.4997 17.3409 18.2391 17.4713 18.0435C17.5364 17.9783 17.5894 17.9125 17.6342 17.8473C17.679 17.7821 17.7161 17.7176 17.7487 17.6524C17.8139 17.522 17.863 17.3918 17.9282 17.2614C18.1888 16.8049 18.0585 16.2829 17.9282 16.022C17.9282 16.022 17.8625 15.8266 17.7322 15.6309C17.667 15.4353 17.5367 15.1084 17.4064 14.8476C17.1457 14.2606 16.8851 13.6084 16.7547 13.2171C16.5593 12.7606 16.2991 12.4343 15.9733 12.3038C15.8104 12.206 15.6475 12.1744 15.5253 12.1663ZM14.539 13.4783H15.2555H15.3866C15.3866 13.4783 15.4513 13.5437 15.5164 13.7394C15.6467 14.1307 15.9726 14.7829 16.168 15.3698C16.2984 15.6307 16.4287 15.9563 16.4938 16.1519C16.559 16.3476 16.6247 16.4788 16.6898 16.6092C16.6898 16.6744 16.7547 16.6742 16.7547 16.6742C16.6244 16.935 16.6244 16.9995 16.4289 17.1951C16.2335 17.456 15.9723 17.7169 15.9071 17.8473C15.842 17.9778 15.6467 18.1087 15.5164 18.3696C15.3861 18.6304 15.452 19.0867 15.6475 19.4128C15.9082 19.8041 16.6901 21.109 17.9282 22.2176C18.7101 22.935 19.4264 23.3911 20.0128 23.6519C20.5993 23.978 21.0559 24.109 21.1862 24.1742C21.4469 24.3046 21.7068 24.3691 22.0326 24.3691C22.3584 24.3691 22.6198 24.1087 22.8153 23.913C23.0759 23.6522 23.7265 22.8693 24.0523 22.3476L24.1834 22.4125C24.1834 22.4125 24.3784 22.4783 24.639 22.6087C24.8997 22.7391 25.1609 22.8693 25.4867 22.9997C26.0731 23.2606 26.5944 23.5215 26.7899 23.6519L27.1806 23.8481V24.043C27.1806 24.3038 27.1149 24.6962 26.9846 25.0875C26.9195 25.2831 26.5292 25.6737 26.1383 25.9345C25.6821 26.1954 25.1603 26.3916 24.9649 26.4568C24.3784 26.522 23.6624 26.5864 22.8153 26.3256C22.294 26.1299 21.5767 25.9348 20.6644 25.5435C18.8399 24.7609 17.3407 23.4565 16.2329 22.2826C15.7117 21.6957 15.2555 21.1734 14.9297 20.7821C14.6039 20.3908 14.4746 20.1304 14.3443 20C14.0836 19.7391 12.845 18.0432 12.845 16.478C12.845 14.8476 13.6275 14.1959 14.0185 13.7394C14.214 13.4785 14.4738 13.4783 14.539 13.4783Z" fill="#7C7C7C"/>
</svg>
