<svg width="40" height="40" viewBox="0 0 40 40" fill="none" xmlns="http://www.w3.org/2000/svg">
<path d="M34.999 27.4611V31.9774C35.006 33.7038 33.4537 35.1455 31.7107 34.9882C16.6667 35 5 23.225 5.01177 8.28198C4.85479 6.54825 6.28929 5.00177 8.01351 5.00015H12.5387C13.2708 4.99296 13.9805 5.25167 14.5355 5.72807C16.1136 7.08249 17.1285 11.6796 16.738 13.5071C16.4331 14.9339 14.9948 15.9322 14.017 16.9081C16.1643 20.677 19.2911 23.7976 23.0675 25.9406C24.0453 24.9647 25.0455 23.5293 26.4751 23.225C28.3091 22.8346 32.9358 23.8511 34.2848 25.4401C34.7632 26.0035 35.0173 26.7228 34.999 27.4611Z" stroke="#7C7C7C" stroke-linecap="round" stroke-linejoin="round"/>
</svg>
