<svg width="40" height="40" viewBox="0 0 40 40" fill="none" xmlns="http://www.w3.org/2000/svg">
<path d="M16.3051 32.2271L20.6952 27.8182L27.1729 33.5374C27.5048 33.8392 27.9378 34.0044 28.3855 33.9999C28.5785 33.9994 28.7702 33.9682 28.9535 33.9074L16.3051 32.2271ZM16.3051 32.2271C16.1365 32.3983 15.9356 32.5341 15.7143 32.6267L16.3051 32.2271ZM35.0923 5.75208L35.0923 5.75211L35.0963 5.75552C35.2957 5.92383 35.4449 6.1444 35.5274 6.39295C35.6099 6.64151 35.6224 6.90821 35.5633 7.16347L35.5631 7.16464L29.7922 32.4742C29.7921 32.4746 29.792 32.4751 29.7919 32.4756C29.734 32.7191 29.6151 32.9435 29.4466 33.1275C29.2778 33.3119 29.0649 33.4496 28.8283 33.5275L28.8276 33.5277C28.6846 33.5752 28.535 33.5995 28.3845 33.5999L28.3816 33.5999C28.0349 33.6034 27.6994 33.4756 27.442 33.2415L27.442 33.2414L27.4376 33.2376L20.96 27.5183L20.6776 27.269L20.4118 27.536L16.0217 31.9449L16.0202 31.9464C15.8887 32.0798 15.7322 32.1856 15.5599 32.2577C15.3876 32.3298 15.2027 32.3668 15.0161 32.3667H15.0156C14.8197 32.3667 14.6255 32.3294 14.4434 32.2568C14.1796 32.1502 13.9538 31.9659 13.7957 31.7278C13.6375 31.4895 13.5547 31.2085 13.5583 30.9218H13.5584V30.9168V21.3898V21.0627L13.2377 20.9978L5.54958 19.4412C5.54921 19.4411 5.54884 19.4411 5.54848 19.441C5.24564 19.3777 4.97083 19.2181 4.76489 18.9855L4.46687 19.2493L4.76489 18.9854C4.55867 18.7525 4.43253 18.4588 4.40548 18.1478C4.37844 17.8367 4.45196 17.5254 4.61495 17.2599C4.77779 16.9946 5.02115 16.7895 5.30872 16.6744C5.30897 16.6743 5.30921 16.6742 5.30946 16.6741L33.6275 5.49869C33.6277 5.49862 33.6278 5.49855 33.628 5.49847C33.8719 5.40318 34.1369 5.3764 34.3947 5.42097C34.6527 5.46557 34.8939 5.57997 35.0923 5.75208ZM31.8131 7.53115L31.4317 6.83517L5.46516 17.069C5.25463 17.1455 5.07664 17.2918 4.96039 17.4832C4.84541 17.6726 4.79759 17.8951 4.8242 18.1147C4.84073 18.3325 4.92794 18.5394 5.07301 18.7033C5.2205 18.8699 5.41935 18.9826 5.63821 19.0232L13.5556 20.6104L13.7273 20.6448L13.869 20.5421L31.8131 7.53115ZM14.1597 31.484L14.4916 31.2607L14.1597 31.484C14.2721 31.6511 14.4316 31.7811 14.6182 31.8572C14.8034 31.9337 15.0075 31.9527 15.2037 31.9114C15.3989 31.8704 15.5772 31.7718 15.7157 31.6285L20.0572 27.2839L20.3577 26.9831L20.0392 26.7015L14.6513 21.938L13.9864 21.3501V22.2377L13.9864 30.9168L13.9864 30.9176C13.9868 31.1193 14.0471 31.3166 14.1597 31.484ZM14.5199 20.6036L14.1158 20.8967L14.49 21.2272L27.7166 32.9079C27.8455 33.0286 28.005 33.112 28.1779 33.1485L28.2607 32.7572L28.1779 33.1485C28.35 33.1849 28.5287 33.1736 28.6947 33.1159C28.8617 33.0641 29.0121 32.9693 29.131 32.841C29.2521 32.7105 29.3361 32.55 29.3745 32.3762C29.3746 32.3756 29.3748 32.3751 29.3749 32.3745L35.1451 7.08336C35.1789 6.94333 35.1832 6.79775 35.1575 6.65598C35.1316 6.51306 35.0759 6.37714 34.994 6.25716L34.7619 5.91734L34.4288 6.15901L14.5199 20.6036Z" fill="" stroke="#7C7C7C" stroke-width="0.8"/>
</svg>
