<svg width="40" height="40" viewBox="0 0 40 40" fill="none" xmlns="http://www.w3.org/2000/svg">
<path d="M8.3335 5V4.5C8.05735 4.5 7.8335 4.72386 7.8335 5H8.3335ZM31.6668 35V35.5C31.943 35.5 32.1668 35.2761 32.1668 35H31.6668ZM8.3335 35H7.8335C7.8335 35.2761 8.05735 35.5 8.3335 35.5V35ZM23.3335 5L23.687 4.64645C23.5933 4.55268 23.4661 4.5 23.3335 4.5V5ZM31.6668 13.3333H32.1668C32.1668 13.2007 32.1142 13.0735 32.0204 12.9798L31.6668 13.3333ZM13.3335 27.8333C13.0574 27.8333 12.8335 28.0572 12.8335 28.3333C12.8335 28.6095 13.0574 28.8333 13.3335 28.8333V27.8333ZM26.6668 28.8333C26.943 28.8333 27.1668 28.6095 27.1668 28.3333C27.1668 28.0572 26.943 27.8333 26.6668 27.8333V28.8333ZM13.3335 21.1667C13.0574 21.1667 12.8335 21.3905 12.8335 21.6667C12.8335 21.9428 13.0574 22.1667 13.3335 22.1667V21.1667ZM23.3335 22.1667C23.6096 22.1667 23.8335 21.9428 23.8335 21.6667C23.8335 21.3905 23.6096 21.1667 23.3335 21.1667V22.1667ZM31.6668 34.5H8.3335V35.5H31.6668V34.5ZM8.8335 35V5H7.8335V35H8.8335ZM8.3335 5.5H23.3335V4.5H8.3335V5.5ZM31.1668 13.3333V35H32.1668V13.3333H31.1668ZM22.9799 5.35355L31.3133 13.6869L32.0204 12.9798L23.687 4.64645L22.9799 5.35355ZM21.1668 5V11.6667H22.1668V5H21.1668ZM25.0002 15.5H31.6668V14.5H25.0002V15.5ZM21.1668 11.6667C21.1668 13.7838 22.8831 15.5 25.0002 15.5V14.5C23.4354 14.5 22.1668 13.2315 22.1668 11.6667H21.1668ZM13.3335 28.8333H26.6668V27.8333H13.3335V28.8333ZM13.3335 22.1667H23.3335V21.1667H13.3335V22.1667Z" fill="#7C7C7C"/>
</svg>
