<svg width="23" height="23" viewBox="0 0 23 23" fill="none" xmlns="http://www.w3.org/2000/svg">
<path d="M19.2175 21.9425H3.125C2.40229 21.9425 1.70917 21.6554 1.19813 21.1444C0.687097 20.6333 0.4 19.9402 0.4 19.2175V3.125C0.4 2.40229 0.687097 1.70917 1.19813 1.19813C1.70917 0.687097 2.40229 0.4 3.125 0.4H19.2175C19.9402 0.4 20.6333 0.687097 21.1444 1.19813C21.6554 1.70917 21.9425 2.40229 21.9425 3.125V19.2175C21.9425 19.9402 21.6554 20.6333 21.1444 21.1444C20.6333 21.6554 19.9402 21.9425 19.2175 21.9425ZM3.125 0.85C2.52163 0.85 1.94298 1.08969 1.51633 1.51633C1.08969 1.94298 0.85 2.52163 0.85 3.125V19.2175C0.85 19.8209 1.08969 20.3995 1.51633 20.8262C1.94298 21.2528 2.52163 21.4925 3.125 21.4925H19.2175C19.8209 21.4925 20.3995 21.2528 20.8262 20.8262C21.2528 20.3995 21.4925 19.8209 21.4925 19.2175V3.125C21.4925 2.52163 21.2528 1.94298 20.8262 1.51633C20.3995 1.08969 19.8209 0.85 19.2175 0.85H3.125Z" fill="#F6F6F6" stroke="#F6F6F6" stroke-width="0.8"/>
<path d="M11.1721 6.2731L11.1715 6.2731C10.2042 6.27445 9.25899 6.56243 8.45526 7.10068C7.65153 7.63893 7.02534 8.4033 6.65579 9.29724C6.28624 10.1912 6.1899 11.1746 6.37894 12.1232C6.56798 13.0719 7.03393 13.9433 7.71792 14.6272C8.40192 15.3112 9.27327 15.7772 10.2219 15.9662C11.1706 16.1553 12.154 16.0589 13.0479 15.6894C13.9419 15.3198 14.7062 14.6936 15.2445 13.8899C15.7827 13.0862 16.0707 12.141 16.0721 11.1737V11.1731C16.0721 9.87354 15.5558 8.6272 14.6369 7.70828C13.718 6.78935 12.4716 6.2731 11.1721 6.2731ZM11.1725 16.5156C10.1158 16.5145 9.08318 16.2 8.20514 15.6121C7.32711 15.0242 6.64309 14.1891 6.23956 13.2125C5.83603 12.2359 5.73111 11.1616 5.93805 10.1253C6.14499 9.08911 6.6545 8.1375 7.40219 7.39079C8.14987 6.64408 9.10216 6.1358 10.1387 5.93022C11.1752 5.72463 12.2493 5.83096 13.2254 6.23576C14.2015 6.64057 15.0357 7.32567 15.6225 8.20447C16.2092 9.08315 16.5222 10.116 16.5221 11.1726C16.5202 12.5903 15.9557 13.9493 14.9526 14.9511C13.9496 15.9528 12.5901 16.5155 11.1725 16.5156Z" fill="#222222" stroke="#F6F6F6" stroke-width="0.8"/>
<path d="M18.6156 4.70935C18.6156 5.23057 18.1931 5.6531 17.6719 5.6531C17.1507 5.6531 16.7281 5.23057 16.7281 4.70935C16.7281 4.18813 17.1507 3.7656 17.6719 3.7656C18.1931 3.7656 18.6156 4.18813 18.6156 4.70935Z" fill="#222222" stroke="#F6F6F6" stroke-width="0.8"/>
</svg>
