<svg width="24" height="25" viewBox="0 0 24 25" fill="none" xmlns="http://www.w3.org/2000/svg">
<path d="M2.06897 21.3831C1.47126 21.3831 0.977011 21.1877 0.586207 20.7969C0.195402 20.4061 0 19.9119 0 19.3142V4.96936C0 4.37165 0.195402 3.8774 0.586207 3.4866C0.977011 3.09579 1.47126 2.90039 2.06897 2.90039H21.931C22.5287 2.90039 23.023 3.09579 23.4138 3.4866C23.8046 3.8774 24 4.37165 24 4.96936V19.3142C24 19.9119 23.8046 20.4061 23.4138 20.7969C23.023 21.1877 22.5287 21.3831 21.931 21.3831H2.06897ZM12 11.9349L0.965517 4.62453V19.3142C0.965517 19.636 1.06897 19.9004 1.27586 20.1073C1.48276 20.3142 1.74713 20.4176 2.06897 20.4176H21.931C22.2529 20.4176 22.5172 20.3142 22.7241 20.1073C22.931 19.9004 23.0345 19.636 23.0345 19.3142V4.62453L12 11.9349ZM12 10.7625L22.4828 3.86591H1.51724L12 10.7625ZM0.965517 4.62453V3.86591V19.3142C0.965517 19.636 1.06897 19.9004 1.27586 20.1073C1.48276 20.3142 1.74713 20.4176 2.06897 20.4176H0.965517V19.3142V4.62453Z" fill="#F6F6F6"/>
</svg>
