<svg width="40" height="40" viewBox="0 0 40 40" fill="none" xmlns="http://www.w3.org/2000/svg">
<path d="M28.3333 28.3333C26.4923 28.3333 24.9999 29.8257 24.9999 31.6667C24.9999 33.5076 26.4923 35 28.3333 35C30.1742 35 31.6666 33.5076 31.6666 31.6667C31.6666 29.8257 30.1742 28.3333 28.3333 28.3333ZM28.3333 28.3333H12.2787C11.4493 28.3333 10.7461 27.7235 10.6288 26.9024L10.119 23.3333M3.33325 5H7.49992L7.97611 8.33333M7.97611 8.33333H8.33325H34.9999L29.9999 23.3333H10.8333H10.119M7.97611 8.33333L10.119 23.3333M18.3333 31.6667C18.3333 33.5076 16.8409 35 14.9999 35C13.159 35 11.6666 33.5076 11.6666 31.6667C11.6666 29.8257 13.159 28.3333 14.9999 28.3333C16.8409 28.3333 18.3333 29.8257 18.3333 31.6667Z" stroke="#F6F6F6" stroke-linecap="round" stroke-linejoin="round"/>
</svg>
