<svg width="28" height="28" viewBox="0 0 28 28" fill="none" xmlns="http://www.w3.org/2000/svg">
<path d="M24.4993 19.2228V22.3842C24.5042 23.5927 23.4176 24.6018 22.1975 24.4918C11.6667 24.5 3.5 16.2575 3.50824 5.79738C3.39835 4.58377 4.40251 3.50124 5.60946 3.5001H8.77712C9.28955 3.49507 9.78633 3.67617 10.1749 4.00965C11.2795 4.95774 11.99 8.17573 11.7166 9.45499C11.5032 10.4538 10.4964 11.1525 9.81189 11.8356C11.315 14.4739 13.5038 16.6583 16.1472 18.1584C16.8317 17.4753 17.5319 16.4705 18.5326 16.2575C19.8164 15.9842 23.0551 16.6958 23.9994 17.808C24.3342 18.2025 24.5121 18.706 24.4993 19.2228Z" stroke="#F6F6F6" stroke-linecap="round" stroke-linejoin="round"/>
</svg>
