<svg width="30" height="27" viewBox="0 0 30 27" fill="none" xmlns="http://www.w3.org/2000/svg">
<path d="M29.0684 0.79771L29.0684 0.797743L29.0735 0.801996C29.2426 0.943807 29.3689 1.12937 29.4386 1.33806C29.5084 1.54674 29.5189 1.77055 29.469 1.98478L29.4687 1.98626L24.0588 25.5493C24.0586 25.5498 24.0585 25.5504 24.0584 25.5509C24.0092 25.7558 23.9084 25.945 23.7652 26.1003C23.6216 26.256 23.4402 26.3725 23.2384 26.4386L23.2375 26.4389C23.1158 26.479 22.9884 26.4996 22.8601 26.4999L22.8565 26.4999C22.5621 26.5028 22.2776 26.395 22.0597 26.1982L22.0597 26.1982L22.0542 26.1934L15.9814 20.8686L15.6298 20.5603L15.2987 20.8905L11.183 24.9953L11.1811 24.9972C11.0696 25.1096 10.9368 25.1988 10.7903 25.2597L10.9821 25.7214L10.7903 25.2597C10.6438 25.3206 10.4866 25.3519 10.3278 25.3517H10.3271C10.1588 25.3518 9.99212 25.32 9.83583 25.258C9.61179 25.168 9.42045 25.0127 9.28672 24.8126C9.15279 24.6123 9.08286 24.3763 9.08594 24.1358H9.08598V24.1294V15.2595V14.85L8.68454 14.7693L1.47754 13.3202C1.47715 13.3202 1.47677 13.3201 1.47638 13.32C1.21823 13.2663 0.984454 13.1313 0.809539 12.9351C0.63438 12.7386 0.527546 12.4912 0.504644 12.2297C0.481742 11.9681 0.543963 11.7061 0.682236 11.4824C0.820348 11.259 1.02706 11.0857 1.27197 10.9882C1.27228 10.9881 1.27259 10.988 1.2729 10.9879L27.8202 0.58354C27.8205 0.583444 27.8207 0.583348 27.8209 0.583252C28.0287 0.502688 28.2546 0.480027 28.4743 0.517753C28.6943 0.555523 28.8997 0.652364 29.0684 0.79771ZM29.956 2.09814C30.0268 1.79384 30.0119 1.47593 29.9129 1.17957L29.956 2.09814ZM26.1469 2.46084L25.6724 1.58948L1.33032 11.117C1.10738 11.1979 0.918236 11.3521 0.794322 11.5548L1.22091 11.8156L0.794321 11.5548C0.671934 11.755 0.620566 11.9903 0.648296 12.223C0.666527 12.4533 0.759635 12.6714 0.913488 12.8441C1.07031 13.02 1.28121 13.1386 1.51271 13.1815L8.93446 14.6591L9.14776 14.7015L9.32426 14.5744L26.1469 2.46084ZM9.23722 24.1294L9.23723 24.1304C9.23766 24.3443 9.30203 24.5531 9.42194 24.7301C9.54149 24.9066 9.71079 25.0434 9.90817 25.1234C10.1046 25.204 10.3207 25.2239 10.5285 25.1805C10.735 25.1374 10.924 25.0338 11.0714 24.8828L15.1408 20.8385L15.5204 20.4612L15.1182 20.1081L10.0671 15.6732L9.23722 14.9445V16.0489L9.23722 24.1294ZM29.3201 1.96945C29.3559 1.8217 29.3603 1.66806 29.333 1.51845C29.3055 1.3673 29.2462 1.22373 29.1592 1.09717L28.8696 0.676082L28.4549 0.974848L9.79031 14.4232L9.28055 14.7905L9.75291 15.2048L22.1515 26.0787C22.2888 26.2061 22.4583 26.2937 22.6416 26.3322C22.824 26.3705 23.0132 26.3588 23.1893 26.2984C23.3656 26.2438 23.5247 26.1441 23.6508 26.009C23.7796 25.8711 23.8692 25.7013 23.9103 25.5172C23.9105 25.5163 23.9107 25.5155 23.9109 25.5146L29.3201 1.96945Z" fill="#222222" stroke="#F6F6F6"/>
</svg>
