<svg width="30" height="30" viewBox="0 0 30 30" fill="none" xmlns="http://www.w3.org/2000/svg">
<g clip-path="url(#clip0_4363_904)">
<path d="M15.0128 0C6.7373 0 0.0256536 6.71739 0.0256536 15C0.0256536 17.6739 0.742431 20.1517 1.9805 22.3038L0.0256536 29.1517C-0.0395081 29.3473 0.0251444 29.6082 0.155468 29.8038C0.350953 29.9995 0.611599 30 0.807084 30L7.97486 28.2396C10.06 29.3483 12.4715 30 15.0128 30C23.2884 30 30 23.2826 30 15C30 6.71739 23.2884 0 15.0128 0ZM15.0128 1.30435C22.5716 1.30435 28.6968 7.43478 28.6968 15C28.6968 22.5652 22.5716 28.6957 15.0128 28.6957C12.6018 28.6957 10.3217 28.044 8.36685 26.9353C8.23653 26.8701 8.04028 26.8038 7.90996 26.8691L1.65469 28.4345L3.28374 22.435C3.3489 22.2394 3.28399 22.1084 3.21883 21.9128C2.04592 19.8911 1.32889 17.5435 1.32889 15C1.32889 7.43478 7.45408 1.30435 15.0128 1.30435ZM10.5253 7.16627C10.4032 7.15812 10.3217 7.17391 10.3217 7.17391H9.539C9.14803 7.17391 8.56234 7.30435 8.04104 7.82609C7.71523 8.15217 6.54182 9.32609 6.54182 11.413C6.54182 13.6304 8.04028 15.5215 8.23576 15.7171C8.23576 15.7171 8.49667 16.044 8.82247 16.5005C9.14828 16.957 9.60416 17.4788 10.1906 18.1309C11.3635 19.3701 12.9926 20.8038 15.0777 21.6517C15.99 22.043 16.7719 22.3043 17.3584 22.5C18.401 22.8261 19.3792 22.7614 20.0959 22.6962C20.6172 22.6309 21.2034 22.3691 21.7899 21.9778C22.3763 21.5864 22.9623 21.1307 23.2229 20.4785C23.4184 19.9568 23.4836 19.5005 23.5487 19.1092V18.587C23.5487 18.3913 23.4843 18.3918 23.354 18.1309C23.0282 17.6092 22.7014 17.6092 22.3104 17.4788C22.1149 17.3483 21.5285 17.0875 21.0072 16.8266C20.4207 16.5657 19.9649 16.3049 19.639 16.1744C19.4436 16.1092 19.1834 15.978 18.8576 16.0432C18.5318 16.1084 18.2055 16.3043 18.01 16.6304C17.8145 16.8913 17.0985 17.8038 16.8379 18.0647L16.7717 17.9997C16.511 17.8693 16.1206 17.7396 15.6644 17.4788C15.1432 17.2179 14.5562 16.8266 13.8394 16.1744C12.7968 15.2614 12.08 14.1519 11.8846 13.7606C12.08 13.4997 12.3409 13.2391 12.4713 13.0435C12.5364 12.9783 12.5894 12.9125 12.6342 12.8473C12.679 12.7821 12.7161 12.7176 12.7487 12.6524C12.8139 12.522 12.863 12.3918 12.9282 12.2614C13.1888 11.8049 13.0585 11.2829 12.9282 11.022C12.9282 11.022 12.8625 10.8266 12.7322 10.6309C12.667 10.4353 12.5367 10.1084 12.4064 9.84757C12.1457 9.26062 11.8851 8.60844 11.7547 8.21714C11.5593 7.76061 11.2991 7.43427 10.9733 7.30384C10.8104 7.20601 10.6475 7.17442 10.5253 7.16627ZM9.539 8.47826H10.2555H10.3866C10.3866 8.47826 10.4513 8.54373 10.5164 8.73939C10.6467 9.13069 10.9726 9.78286 11.168 10.3698C11.2984 10.6307 11.4287 10.9563 11.4938 11.1519C11.559 11.3476 11.6247 11.4788 11.6898 11.6092C11.6898 11.6744 11.7547 11.6742 11.7547 11.6742C11.6244 11.935 11.6244 11.9995 11.4289 12.1951C11.2335 12.456 10.9723 12.7169 10.9071 12.8473C10.842 12.9778 10.6467 13.1087 10.5164 13.3696C10.3861 13.6304 10.452 14.0867 10.6475 14.4128C10.9082 14.8041 11.6901 16.109 12.9282 17.2176C13.7101 17.935 14.4264 18.3911 15.0128 18.6519C15.5993 18.978 16.0559 19.109 16.1862 19.1742C16.4469 19.3046 16.7068 19.3691 17.0326 19.3691C17.3584 19.3691 17.6198 19.1087 17.8153 18.913C18.0759 18.6522 18.7265 17.8693 19.0523 17.3476L19.1834 17.4125C19.1834 17.4125 19.3784 17.4783 19.639 17.6087C19.8997 17.7391 20.1609 17.8693 20.4867 17.9997C21.0731 18.2606 21.5944 18.5215 21.7899 18.6519L22.1806 18.8481V19.043C22.1806 19.3038 22.1149 19.6962 21.9846 20.0875C21.9195 20.2831 21.5292 20.6737 21.1383 20.9345C20.6821 21.1954 20.1603 21.3916 19.9649 21.4568C19.3784 21.522 18.6624 21.5864 17.8153 21.3256C17.294 21.1299 16.5767 20.9348 15.6644 20.5435C13.8399 19.7609 12.3407 18.4565 11.2329 17.2826C10.7117 16.6957 10.2555 16.1734 9.92971 15.7821C9.6039 15.3908 9.4746 15.1304 9.34428 15C9.08363 14.7391 7.84505 13.0432 7.84505 11.478C7.84505 9.84757 8.6275 9.19591 9.01847 8.73939C9.21395 8.47852 9.47383 8.47826 9.539 8.47826Z" fill="#F6F6F6"/>
</g>
<defs>
<clipPath id="clip0_4363_904">
<rect width="30" height="30" fill="white"/>
</clipPath>
</defs>
</svg>
