<svg width="33" height="25" viewBox="0 0 33 25" fill="none" xmlns="http://www.w3.org/2000/svg">
<path d="M21.3027 12.6787L21.3026 12.6789L21.3136 12.6858C21.3238 12.6922 21.3322 12.7011 21.338 12.7117C21.3439 12.7222 21.3469 12.7341 21.3469 12.7461C21.3469 12.7582 21.3439 12.77 21.338 12.7806C21.3322 12.7911 21.3238 12.8 21.3136 12.8064L21.3135 12.8063L21.3027 12.8135L14.2715 17.501L14.2618 17.5074L14.2525 17.5143C14.2484 17.5173 14.2437 17.5191 14.2387 17.5195C14.2178 17.5179 14.1973 17.5121 14.1785 17.5025C14.1671 17.4964 14.1574 17.4873 14.1508 17.4762C14.144 17.4649 14.1405 17.4519 14.1406 17.4388H14.1406V17.4336V8.05862H14.1407L14.1406 8.05347C14.1405 8.04031 14.144 8.02736 14.1508 8.01606C14.1575 8.00477 14.1673 7.99557 14.179 7.9895L14.179 7.98952L14.1836 7.98707C14.1973 7.97977 14.2127 7.97631 14.2282 7.97706C14.2437 7.97782 14.2586 7.98272 14.2715 7.99125C14.2715 7.99129 14.2716 7.99133 14.2717 7.99137L21.3027 12.6787ZM14.3125 16.335V17.2685L15.0896 16.7512L20.4802 13.1623L21.1054 12.7461L20.4802 12.3299L15.0896 8.74105L14.3125 8.2237V9.15725V16.335ZM30.9258 20.9597L30.9265 20.957C31.2907 19.5457 31.7188 16.9976 31.7188 12.7461C31.7188 8.49466 31.2907 5.94659 30.9265 4.53524L30.9258 4.53254C30.8354 4.19006 30.6657 3.87365 30.4303 3.60889C30.195 3.34414 29.9007 3.13848 29.5711 3.00851L29.5677 3.00717C27.1251 2.06483 23.8835 1.61025 21.2746 1.38794C19.9636 1.27623 18.7999 1.22225 17.9582 1.19617C17.5372 1.18313 17.1963 1.17706 16.9575 1.17425C16.8381 1.17285 16.7441 1.17226 16.6784 1.17202L16.6014 1.17187L16.5795 1.17189L16.573 1.1719L16.571 1.1719L16.5703 1.1719L16.5696 1.1719L16.5676 1.1719L16.5611 1.17189L16.5393 1.17187L16.4622 1.17202C16.3965 1.17226 16.3025 1.17285 16.1831 1.17425C15.9443 1.17706 15.6035 1.18313 15.1825 1.19617C14.3407 1.22225 13.177 1.27623 11.866 1.38794C9.25708 1.61025 6.0155 2.06483 3.57296 3.00717L3.57295 3.00716L3.56949 3.00852C3.23997 3.13848 2.94564 3.34414 2.71031 3.60889C2.47497 3.87365 2.30523 4.19006 2.21481 4.53255L2.2148 4.53254L2.2141 4.53524C1.84989 5.94659 1.42188 8.49466 1.42188 12.7461C1.42188 16.9976 1.84989 19.5457 2.2141 20.957L2.21481 20.9597C2.30523 21.3022 2.47497 21.6186 2.71031 21.8833C2.94564 22.1481 3.23997 22.3538 3.56949 22.4837L3.57296 22.4851C6.0155 23.4274 9.25708 23.882 11.866 24.1043C13.177 24.216 14.3407 24.27 15.1825 24.2961C15.6035 24.3091 15.9443 24.3152 16.1831 24.318C16.3025 24.3194 16.3965 24.32 16.4622 24.3202L16.5393 24.3204L16.5611 24.3204L16.5676 24.3203L16.5696 24.3203H16.5703H16.571L16.573 24.3203L16.5795 24.3204L16.6014 24.3204L16.6784 24.3202C16.7441 24.32 16.8381 24.3194 16.9575 24.318C17.1963 24.3152 17.5372 24.3091 17.9582 24.2961C18.7999 24.27 19.9636 24.216 21.2746 24.1043C23.8835 23.882 27.1251 23.4274 29.5677 22.4851L29.5711 22.4837C29.9007 22.3538 30.195 22.1481 30.4303 21.8833C30.6657 21.6186 30.8354 21.3022 30.9258 20.9597ZM2.58092 21.9974L2.20736 22.3298L2.58092 21.9974C2.32546 21.7103 2.14 21.3679 2.03905 20.9971C1.68559 19.6244 1.25 17.0608 1.25 12.7461C1.25 8.4315 1.68559 5.86782 2.03904 4.49511C2.14 4.12432 2.32546 3.78193 2.58092 3.49481C2.83628 3.20778 3.15463 2.9838 3.51101 2.84039C5.91837 1.91519 9.0855 1.45119 11.7229 1.22153C14.2886 0.998122 16.3089 0.999811 16.5555 1.00002C16.5615 1.00002 16.5664 1.00003 16.5703 1.00003C16.5742 1.00003 16.5791 1.00002 16.5851 1.00002C16.8317 0.999811 18.852 0.998122 21.4177 1.22153C24.0551 1.45119 27.2222 1.91519 29.6296 2.84038C29.986 2.98379 30.3043 3.20778 30.5597 3.49481C30.8151 3.78191 31.0006 4.12426 31.1016 4.49502C31.455 5.86771 31.8906 8.43141 31.8906 12.7461C31.8906 17.0608 31.455 19.6245 31.1016 20.9972C31.0006 21.368 30.8151 21.7103 30.5597 21.9974C30.3043 22.2845 29.9858 22.5086 29.6293 22.652C27.3444 23.534 24.3692 23.9976 21.8116 24.2381C19.2622 24.4778 17.1698 24.4922 16.6729 24.4922H16.5703L16.5555 24.4922C16.3089 24.4924 14.2886 24.4941 11.7229 24.2707C9.08549 24.041 5.91835 23.577 3.51099 22.6518C3.15462 22.5084 2.83628 22.2844 2.58092 21.9974Z" fill="#222222" stroke="#F6F6F6"/>
</svg>
